#N canvas 1190 389 450 367 12;
#X obj 41 7 inlet~;
#X obj 92 7 inlet~;
#X obj 142 7 inlet~;
#X obj 194 7 inlet~;
#X obj 183 129 vu 15 120 empty empty -1 -8 0 10 -66577 -1 1 0;
#X obj 107 124 vsl 15 128 0 1 0 0 empty empty empty 0 -9 0 10 -262144
-1 -1 6900 1;
#X obj 125 124 vsl 15 128 0 1 0 0 empty empty empty 0 -9 0 10 -262144
-1 -1 0 1;
#X obj 143 124 vsl 15 128 0.1 1 0 0 empty empty empty 0 -9 0 10 -262144
-1 -1 0 1;
#X obj 162 124 vsl 15 128 0.1 1 0 0 empty empty empty 0 -9 0 10 -262144
-1 -1 0 1;
#X obj 95 282 +;
#X obj 193 280 +;
#X obj 144 309 +;
#X obj 41 38 *~ 0;
#X obj 88 37 *~ 0;
#X obj 136 37 *~ 0;
#X obj 183 36 *~ 0;
#X obj 63 68 +~;
#X obj 154 68 +~;
#X obj 101 70 +~;
#X obj 16 109 outlet~;
#X obj 224 332 rmstodb;
#X connect 0 0 12 0;
#X connect 1 0 13 0;
#X connect 2 0 14 0;
#X connect 3 0 15 0;
#X connect 5 0 9 0;
#X connect 5 0 12 1;
#X connect 6 0 9 1;
#X connect 6 0 13 1;
#X connect 7 0 10 0;
#X connect 7 0 14 1;
#X connect 8 0 10 1;
#X connect 8 0 15 1;
#X connect 9 0 11 0;
#X connect 10 0 11 1;
#X connect 11 0 20 0;
#X connect 12 0 16 0;
#X connect 13 0 16 1;
#X connect 14 0 17 0;
#X connect 15 0 17 1;
#X connect 16 0 18 0;
#X connect 17 0 18 1;
#X connect 18 0 19 0;
#X connect 20 0 4 0;
#X coords 0 -1 1 1 130 160 1 100 100;
