#N canvas 0 103 1079 977 12;
#X obj 53 81 lp_noise~;
#X obj 495 76 hp_noise~;
#X obj 543 538 output~;
#X obj 73 414 vu 15 120 vu1 empty -1 -8 0 10 -66577 -1 1 0;
#X obj 46 413 vsl 20 120 0 1 0 0 level1 empty Ch1 0 -9 0 10 -191407
-1 -1 0 1;
#X obj 636 363 vu 15 120 vu_master empty -1 -8 0 10 -66577 -1 1 0;
#X obj 602 362 vsl 20 120 0 1 0 0 master_vol empty Master_Vol 0 -9
0 10 -191407 -1 -1 7100 1;
#X obj 44 371 hsl 75 20 0 1 0 0 pan1 empty Pan -2 -8 0 10 -191407 -1
-1 1700 1;
#X obj 45 330 hsl 75 20 0 1 0 0 fx1 empty Effects_Send -2 -8 0 10 -191407
-1 -1 300 1;
#X obj 509 362 vsl 20 120 0 1 0 0 fx_val empty Effects_Return 0 -9
0 10 -191407 -1 -1 9200 1;
#N canvas 363 583 450 300 chan1 0;
#X obj 122 139 env~;
#X obj 122 173 - 95;
#X obj 117 39 catch~ ch1;
#X obj 121 110 *~;
#X obj 198 80 r level1;
#X obj 123 208 s vu1;
#X obj 150 80 pow 2;
#X obj 203 146 panner~;
#X obj 266 117 nbx 5 14 -1e+37 1e+37 0 0 empty pan1 empty 0 -8 0 10
-262144 -1 -1 0.22973 256;
#X obj 188 187 throw~ masterL;
#X obj 302 187 throw~ masterR;
#X obj 43 178 *~;
#X obj 37 107 nbx 5 14 -1e+37 1e+37 0 0 empty fx1 empty 0 -8 0 10 -262144
-1 -1 0.743243 256;
#X obj 42 208 throw~ fx;
#X connect 0 0 1 0;
#X connect 1 0 5 0;
#X connect 2 0 3 0;
#X connect 3 0 0 0;
#X connect 3 0 7 0;
#X connect 3 0 11 0;
#X connect 4 0 6 0;
#X connect 6 0 3 1;
#X connect 7 0 9 0;
#X connect 7 1 10 0;
#X connect 8 0 7 1;
#X connect 11 0 13 0;
#X connect 12 0 11 1;
#X restore 44 287 pd chan1;
#N canvas 0 103 378 292 fx 0;
#X obj 76 44 catch~ fx;
#X obj 75 92 rev2~ 100 85 3000 20;
#X obj 81 154 *~;
#X obj 122 154 *~;
#X obj 171 141 nbx 5 14 -1e+37 1e+37 0 0 empty fx_val empty 0 -8 0
10 -262144 -1 -1 0.773109 256;
#X obj 54 203 throw~ masterL;
#X obj 171 205 throw~ masterR;
#X connect 0 0 1 0;
#X connect 1 0 2 0;
#X connect 1 1 3 0;
#X connect 2 0 5 0;
#X connect 3 0 6 0;
#X connect 4 0 3 1;
#X connect 4 0 2 1;
#X restore 511 315 pd fx;
#N canvas 409 208 956 796 master 0;
#X obj 196 235 env~;
#X obj 196 269 - 95;
#X obj 191 175 *~;
#X obj 227 173 pow 2;
#X obj 197 304 s vu_master;
#X obj 275 173 r master_vol;
#X obj 190 145 catch~ masterL;
#X obj 373 173 *~;
#X obj 301 145 catch~ masterR;
#X obj 247 211 +~;
#X obj 188 356 outlet~;
#X obj 257 357 outlet~;
#X connect 0 0 1 0;
#X connect 1 0 4 0;
#X connect 2 0 9 0;
#X connect 2 0 10 0;
#X connect 3 0 2 1;
#X connect 3 0 7 1;
#X connect 5 0 3 0;
#X connect 6 0 2 0;
#X connect 7 0 9 1;
#X connect 7 0 11 0;
#X connect 8 0 7 0;
#X connect 9 0 0 0;
#X restore 541 507 pd master;
#X obj 193 412 vu 15 120 vu2 empty -1 -8 0 10 -66577 -1 1 0;
#X obj 161 415 vsl 20 120 0 1 0 0 level2 empty Ch2 0 -9 0 10 -191407
-1 -1 8100 1;
#X obj 164 369 hsl 75 20 0 1 0 0 pan2 empty Pan -2 -8 0 10 -191407
-1 -1 2300 1;
#X obj 165 328 hsl 75 20 0 1 0 0 fx1 empty Effects_Send -2 -8 0 10
-191407 -1 -1 5500 1;
#N canvas 300 134 450 300 chan2 0;
#X obj 122 139 env~;
#X obj 122 173 - 95;
#X obj 121 110 *~;
#X obj 150 80 pow 2;
#X obj 203 146 panner~;
#X obj 266 117 nbx 5 14 -1e+37 1e+37 0 0 empty pan2 empty 0 -8 0 10
-262144 -1 -1 0.310811 256;
#X obj 188 187 throw~ masterL;
#X obj 302 187 throw~ masterR;
#X obj 43 178 *~;
#X obj 37 107 nbx 5 14 -1e+37 1e+37 0 0 empty fx2 empty 0 -8 0 10 -262144
-1 -1 0.472973 256;
#X obj 123 208 s vu2;
#X obj 198 79 r level2;
#X obj 118 39 catch~ ch2;
#X obj 42 208 throw~ fx;
#X connect 0 0 1 0;
#X connect 1 0 10 0;
#X connect 2 0 0 0;
#X connect 2 0 4 0;
#X connect 2 0 8 0;
#X connect 3 0 2 1;
#X connect 4 0 6 0;
#X connect 4 1 7 0;
#X connect 5 0 4 1;
#X connect 8 0 13 0;
#X connect 9 0 8 1;
#X connect 11 0 3 0;
#X connect 12 0 2 0;
#X restore 165 285 pd chan2;
#X obj 648 239 line;
#X obj 194 784 osc~;
#X obj 196 827 *~;
#X obj 194 884 throw~ ch2;
#X msg 289 706 0 200;
#X msg 312 732 0.5 500;
#X obj 182 706 vline~;
#X obj 291 760 vline~;
#X obj 93 0 bng 15 250 50 0 empty empty empty 17 7 0 10 -262144 -1
-1;
#X obj 93 0 bng 15 250 50 0 empty empty empty 17 7 0 10 -262144 -1
-1;
#X obj 203 638 bng 15 250 50 0 empty empty empty 17 7 0 10 -262144
-1 -1;
#X msg 183 675 440 0 0 \, 500 10000 0;
#X obj 639 817 osc~;
#X obj 641 860 *~;
#X obj 627 739 vline~;
#X msg 711 744 0 200;
#X msg 734 770 0.5 500;
#X obj 713 798 vline~;
#X msg 629 708 440 0 0 \, 400 10000 0;
#X msg 341 705 0.5 2000 0 \, 0.2 4000 4000 \, 0 500 2000;
#X msg 764 742 0.5 2000 0 \, 0.2 4000 4000 \, 0 500 2000;
#N canvas 0 103 893 655 16x 0;
#X obj 84 387 *~ 0.064;
#X obj 84 412 rpole~ 0.93538;
#X obj 84 439 *~ 0.00431;
#X obj 84 465 cpole~ 0.96559 0.05592;
#X obj 84 505 cpole~ 0.96559 -0.05592;
#X obj 84 532 *~ 0.125;
#X obj 84 559 rzero~ -1;
#X obj 84 585 rzero~ -1;
#X obj 83 613 rzero~ -1;
#X obj 82 133 phasor~;
#X obj 83 647 outlet~;
#X obj 100 202 wrap~;
#X obj 100 172 -~;
#X obj 101 246 *~;
#X obj 83 275 +~;
#X obj 169 267 phasor~;
#X obj 205 321 wrap~;
#X obj 205 297 -~;
#X obj 227 355 *~;
#X obj 169 362 +~;
#X obj 84 347 +~;
#X obj 296 469 block~ 1024 1 16;
#X obj 169 30 inlet;
#X obj 208 81 r osc-params;
#X obj 169 211 *~;
#X obj 169 239 +~;
#X msg 293 409 \; osc-params 0.5 -0.5 0.5 0.5 1 0.5;
#X obj 293 383 loadbang;
#X obj 208 108 unpack f f f f f f;
#X connect 0 0 1 0;
#X connect 1 0 2 0;
#X connect 2 0 3 0;
#X connect 3 0 4 0;
#X connect 3 1 4 1;
#X connect 4 0 5 0;
#X connect 5 0 6 0;
#X connect 6 0 7 0;
#X connect 7 0 8 0;
#X connect 8 0 10 0;
#X connect 9 0 12 0;
#X connect 9 0 14 0;
#X connect 11 0 13 0;
#X connect 12 0 11 0;
#X connect 13 0 14 1;
#X connect 14 0 20 0;
#X connect 15 0 17 0;
#X connect 15 0 19 0;
#X connect 16 0 18 0;
#X connect 17 0 16 0;
#X connect 18 0 19 1;
#X connect 19 0 20 1;
#X connect 20 0 0 0;
#X connect 22 0 9 0;
#X connect 22 0 24 0;
#X connect 23 0 28 0;
#X connect 24 0 25 0;
#X connect 25 0 15 0;
#X connect 27 0 26 0;
#X connect 28 0 12 1;
#X connect 28 1 13 1;
#X connect 28 2 17 1;
#X connect 28 3 18 1;
#X connect 28 4 24 1;
#X connect 28 5 25 1;
#X restore 120 781 pd 16x;
#X connect 12 0 2 0;
#X connect 12 1 2 1;
#X connect 19 0 20 0;
#X connect 20 0 21 0;
#X connect 22 0 25 0;
#X connect 23 0 25 0;
#X connect 24 0 19 0;
#X connect 25 0 20 1;
#X connect 28 0 29 0;
#X connect 28 0 36 0;
#X connect 28 0 38 0;
#X connect 28 0 37 0;
#X connect 29 0 24 0;
#X connect 30 0 31 0;
#X connect 31 0 21 0;
#X connect 32 0 30 0;
#X connect 33 0 35 0;
#X connect 34 0 35 0;
#X connect 35 0 31 1;
#X connect 36 0 32 0;
#X connect 37 0 25 0;
#X connect 38 0 35 0;
