#N canvas 904 103 960 977 12;
#X obj 143 139 nbx 5 14 -1e+37 1e+37 0 0 empty empty empty 0 -8 0 10
-262144 -1 -1 0 256;
#X obj 45 182 noise~;
#X obj 103 182 mtof;
#X floatatom 102 136 5 0 0 0 - #0-pit -;
#X floatatom 103 207 5 0 0 0 - - -;
#X obj 142 180 dbtorms;
#X obj 117 286 *~ 0;
#X text 100 112 Cutoff;
#X text 152 112 Gain;
#X obj 118 323 outlet~;
#X obj 76 252 hip~;
#X connect 0 0 5 0;
#X connect 1 0 10 0;
#X connect 2 0 4 0;
#X connect 3 0 2 0;
#X connect 4 0 10 1;
#X connect 5 0 6 1;
#X connect 6 0 9 0;
#X connect 10 0 6 0;
#X coords 0 -1 1 1 100 60 1 100 100;
