#N canvas 760 371 960 977 12;
#X obj 53 296 noise~;
#X obj 111 296 mtof;
#X floatatom 102 136 5 0 0 0 - \$0-pit - 0;
#X floatatom 111 321 5 0 0 0 - - - 0;
#X obj 203 377 dbtorms;
#X obj 84 397 *~ 0, f 5;
#X text 100 112 Cutoff;
#X obj 84 366 lop~ 5;
#X obj 185 452 env~ 16384 8192;
#X obj 148 140 nbx 5 14 -1e+37 1e+37 0 0 empty empty empty 0 -8 0 10 #fcfcfc #000000 #000000 0 256;
#X text 152 111 RMS amp.;
#X obj 229 423 nbx 5 14 -1e+37 1e+37 0 0 empty empty empty 0 -8 0 10 #fcfcfc #000000 #000000 0 256;
#X obj 204 352 nbx 5 14 -1e+37 1e+37 0 0 empty empty empty 0 -8 0 10 #fcfcfc #000000 #000000 0 256;
#X obj 252 520 nbx 5 14 -1e+37 1e+37 0 0 empty empty empty 0 -8 0 10 #fcfcfc #000000 #000000 0 256;
#X obj 199 488 expr $f1;
#X obj 290 83 loadbang;
#X obj 290 148 array define -yrange 80 120 dbtorms-lookup 132;
#X obj 204 324 array get dbtorms-lookup;
#X obj 165 293 bng 15 250 50 0 empty empty empty 17 7 0 10 #fcfcfc #000000 #000000;
#X obj 203 297 nbx 5 14 -1e+37 1e+37 0 0 empty empty empty 0 -8 0 10 #fcfcfc #000000 #000000 0 256;
#X obj 286 296 nbx 5 14 -1e+37 1e+37 0 0 empty empty empty 0 -8 0 10 #fcfcfc #000000 #000000 0 256;
#X obj 281 269 + 1;
#X obj 84 570 throw~ ch1;
#X msg 290 112 read ../data/dbtorms-lookup.txt;
#X connect 0 0 7 0;
#X connect 1 0 3 0;
#X connect 2 0 1 0;
#X connect 2 0 21 0;
#X connect 2 0 19 0;
#X connect 2 0 18 0;
#X connect 3 0 7 1;
#X connect 4 0 5 1;
#X connect 4 0 11 0;
#X connect 5 0 8 0;
#X connect 5 0 22 0;
#X connect 7 0 5 0;
#X connect 8 0 9 0;
#X connect 8 0 14 0;
#X connect 12 0 4 0;
#X connect 14 0 13 0;
#X connect 15 0 23 0;
#X connect 17 0 12 0;
#X connect 18 0 17 0;
#X connect 19 0 17 0;
#X connect 20 0 17 1;
#X connect 21 0 20 0;
#X connect 23 0 16 0;
#X coords 0 -1 1 1 120 80 1 100 100;
