#N canvas 488 339 644 459 12;
#X obj 69 50 inlet~ signal;
#X obj 196 52 inlet control;
#X obj 196 85 / 4;
#X obj 196 116 nbx 5 14 -1e+37 1e+37 0 0 empty empty empty 0 -8 0 10
-262144 -1 -1 0 256;
#X obj 196 152 + 0.75;
#X msg 92 165 \$1 10;
#X obj 92 223 line~;
#X obj 91 259 cos~;
#X obj 56 303 *~;
#X obj 58 371 outlet~ left;
#X obj 212 366 outlet~ right;
#X obj 214 298 *~;
#X obj 199 222 line~;
#X obj 240 265 cos~;
#X text 235 83 <-- range: 0-.25;
#X msg 196 189 \$1 10;
#X connect 0 0 8 0;
#X connect 0 0 11 0;
#X connect 1 0 2 0;
#X connect 2 0 3 0;
#X connect 3 0 4 0;
#X connect 3 0 5 0;
#X connect 4 0 15 0;
#X connect 5 0 6 0;
#X connect 6 0 7 0;
#X connect 7 0 8 1;
#X connect 8 0 9 0;
#X connect 11 0 10 0;
#X connect 12 0 13 0;
#X connect 13 0 11 1;
#X connect 15 0 12 0;
